<svg width="62" height="63" viewBox="0 0 62 63" fill="none" xmlns="http://www.w3.org/2000/svg">
<g clip-path="url(#clip0_788_98)">
<path d="M47.4689 0.0947266H14.5314C6.50598 0.0947266 0.00012207 6.60059 0.00012207 14.626V47.5635C0.00012207 55.5889 6.50598 62.0947 14.5314 62.0947H47.4689C55.4943 62.0947 62.0001 55.5889 62.0001 47.5635V14.626C62.0001 6.60059 55.4943 0.0947266 47.4689 0.0947266Z" fill="url(#paint0_radial_788_98)" style=""/>
<path d="M47.4689 0.0947266H14.5314C6.50598 0.0947266 0.00012207 6.60059 0.00012207 14.626V47.5635C0.00012207 55.5889 6.50598 62.0947 14.5314 62.0947H47.4689C55.4943 62.0947 62.0001 55.5889 62.0001 47.5635V14.626C62.0001 6.60059 55.4943 0.0947266 47.4689 0.0947266Z" fill="url(#paint1_radial_788_98)" style=""/>
<path d="M31.0023 6.87598C24.425 6.87598 23.5994 6.9048 21.0162 7.02226C18.4379 7.14045 16.6779 7.54853 15.1381 8.14746C13.5449 8.76601 12.1938 9.59356 10.8477 10.9401C9.50041 12.2864 8.67286 13.6376 8.05237 15.23C7.45175 16.7703 7.04318 18.531 6.92717 21.1081C6.81165 23.6915 6.78137 24.5174 6.78137 31.095C6.78137 37.6725 6.81043 38.4955 6.92765 41.0787C7.04633 43.657 7.45441 45.417 8.05286 46.9568C8.67189 48.5499 9.49944 49.9011 10.846 51.2472C12.1918 52.5944 13.543 53.4239 15.1349 54.0425C16.6759 54.6414 18.4362 55.0495 21.014 55.1677C23.5974 55.2851 24.4223 55.314 30.9994 55.314C37.5774 55.314 38.4004 55.2851 40.9836 55.1677C43.5619 55.0495 45.3238 54.6414 46.8649 54.0425C48.4572 53.4239 49.8065 52.5944 51.1521 51.2472C52.4993 49.9011 53.3267 48.5499 53.9474 46.9575C54.5427 45.417 54.9515 43.6565 55.0726 41.0791C55.1886 38.496 55.2189 37.6725 55.2189 31.095C55.2189 24.5174 55.1886 23.692 55.0726 21.1086C54.9515 18.5303 54.5427 16.7705 53.9474 15.2307C53.3267 13.6376 52.4993 12.2864 51.1521 10.9401C49.805 9.59308 48.4577 8.76552 46.8634 8.1477C45.3195 7.54853 43.5585 7.1402 40.9802 7.02226C38.3968 6.9048 37.5743 6.87598 30.9948 6.87598H31.0023ZM28.8296 11.2404C29.4746 11.2395 30.1941 11.2404 31.0023 11.2404C37.469 11.2404 38.2352 11.2637 40.7889 11.3797C43.1502 11.4877 44.4318 11.8822 45.2856 12.2138C46.4158 12.6526 47.2216 13.1775 48.0688 14.0254C48.9164 14.873 49.441 15.6802 49.8811 16.8105C50.2126 17.663 50.6076 18.9447 50.7152 21.306C50.8312 23.8591 50.8563 24.6259 50.8563 31.0894C50.8563 37.5529 50.8312 38.3199 50.7152 40.8728C50.6071 43.2341 50.2126 44.5158 49.8811 45.3685C49.4422 46.4988 48.9164 47.3036 48.0688 48.1508C47.2211 48.9984 46.4163 49.523 45.2856 49.9621C44.4328 50.2951 43.1502 50.6887 40.7889 50.7967C38.2357 50.9127 37.469 50.9379 31.0023 50.9379C24.5354 50.9379 23.7689 50.9127 21.216 50.7967C18.8547 50.6877 17.573 50.2932 16.7186 49.9616C15.5885 49.5225 14.7811 48.998 13.9334 48.1503C13.0858 47.3026 12.5612 46.4974 12.1211 45.3666C11.7896 44.5139 11.3946 43.2322 11.287 40.8709C11.171 38.3177 11.1478 37.551 11.1478 31.0833C11.1478 24.6157 11.171 23.8531 11.287 21.2999C11.395 18.9386 11.7896 17.657 12.1211 16.8032C12.5602 15.673 13.0858 14.8657 13.9337 14.0181C14.7816 13.1704 15.5885 12.6456 16.7188 12.2058C17.5725 11.8728 18.8547 11.4792 21.216 11.3707C23.4502 11.2697 24.316 11.2395 28.8296 11.2344V11.2404ZM43.9303 15.2617C42.3258 15.2617 41.024 16.5623 41.024 18.167C41.024 19.7715 42.3258 21.0733 43.9303 21.0733C45.5348 21.0733 46.8365 19.7715 46.8365 18.167C46.8365 16.5625 45.5348 15.2607 43.9303 15.2607V15.2617ZM31.0023 18.6574C24.1339 18.6574 18.565 24.2263 18.565 31.095C18.565 37.9636 24.1339 43.5298 31.0023 43.5298C37.871 43.5298 43.4379 37.9636 43.4379 31.095C43.4379 24.2265 37.8705 18.6574 31.0018 18.6574H31.0023ZM31.0023 23.0219C35.4607 23.0219 39.0754 26.6361 39.0754 31.095C39.0754 35.5534 35.4607 39.168 31.0023 39.168C26.5439 39.168 22.9295 35.5534 22.9295 31.095C22.9295 26.6361 26.5436 23.0219 31.0023 23.0219Z" fill="white" style="fill:white;fill-opacity:1;"/>
</g>
<defs>
<radialGradient id="paint0_radial_788_98" cx="0" cy="0" r="1" gradientUnits="userSpaceOnUse" gradientTransform="translate(16.4689 66.8699) rotate(-90) scale(61.4466 57.1502)">
<stop stop-color="#FFDD55" style="stop-color:#FFDD55;stop-color:color(display-p3 1.0000 0.8667 0.3333);stop-opacity:1;"/>
<stop offset="0.1" stop-color="#FFDD55" style="stop-color:#FFDD55;stop-color:color(display-p3 1.0000 0.8667 0.3333);stop-opacity:1;"/>
<stop offset="0.5" stop-color="#FF543E" style="stop-color:#FF543E;stop-color:color(display-p3 1.0000 0.3294 0.2431);stop-opacity:1;"/>
<stop offset="1" stop-color="#C837AB" style="stop-color:#C837AB;stop-color:color(display-p3 0.7843 0.2157 0.6706);stop-opacity:1;"/>
</radialGradient>
<radialGradient id="paint1_radial_788_98" cx="0" cy="0" r="1" gradientUnits="userSpaceOnUse" gradientTransform="translate(-10.3851 4.56091) rotate(78.681) scale(27.467 113.22)">
<stop stop-color="#3771C8" style="stop-color:#3771C8;stop-color:color(display-p3 0.2157 0.4431 0.7843);stop-opacity:1;"/>
<stop offset="0.128" stop-color="#3771C8" style="stop-color:#3771C8;stop-color:color(display-p3 0.2157 0.4431 0.7843);stop-opacity:1;"/>
<stop offset="1" stop-color="#6600FF" stop-opacity="0" style="stop-color:none;stop-opacity:0;"/>
</radialGradient>
<clipPath id="clip0_788_98">
<rect width="62" height="62" fill="white" style="fill:white;fill-opacity:1;" transform="translate(0.00012207 0.0947266)"/>
</clipPath>
</defs>
</svg>
