<svg width="189" height="253" viewBox="0 0 189 253" fill="none" xmlns="http://www.w3.org/2000/svg">
<path d="M135.64 116.05L95.7602 77.8199C94.8102 76.9099 94.5102 75.5099 95.0002 74.2899C95.4902 73.0699 96.6802 72.2699 97.9902 72.2699H133.88V33.3299L94.1602 7.33988L54.4402 33.3299V113.73H47.9902V31.5899C47.9902 30.4999 48.5402 29.4899 49.4502 28.8899L92.3902 0.779883C93.4602 0.0798828 94.8502 0.0798828 95.9202 0.779883L138.86 28.8899C139.77 29.4899 140.32 30.4999 140.32 31.5899V75.5099C140.32 77.2899 138.87 78.7399 137.09 78.7399H106L140.08 111.41L135.61 116.07L135.64 116.05Z" fill="white"/>
<path d="M73.3299 113.72H66.8799V41.2898C66.8799 40.1998 67.4299 39.1898 68.3399 38.5898L109.27 11.7998L112.8 17.1998L73.3299 43.0298V113.71V113.72Z" fill="white"/>
<path d="M29.3501 205.25H23.1001L10.6401 169.37L11.4501 168.17H22.0701V143.5H6.78008V205.25H0.830078V138.23H23.2701C24.6701 138.23 25.8101 138.67 26.7001 139.56C27.5801 140.45 28.0301 141.59 28.0301 142.99V168.43C28.0301 171.66 25.8601 173.27 21.5201 173.27C21.0901 173.27 20.4601 173.25 19.6401 173.21C18.8101 173.17 18.2101 173.15 17.8401 173.15C21.6901 183.83 25.5301 194.53 29.3601 205.27L29.3501 205.25Z" fill="white"/>
<path d="M57.1399 205.25H35.1299V138.23H56.8799V143.5H41.0799V168.51H55.4699V173.86H41.0799V199.98H57.1399V205.25Z" fill="white"/>
<path d="M90.7303 205.25H86.6203L68.7204 155.96V205.25H63.1104V138.23H67.5603L85.1203 186.66V138.23H90.7303V205.25Z" fill="white"/>
<path d="M122.39 143.5H112.03V205.25H106.08V143.5H95.6299V138.23H122.39V143.5Z" fill="white"/>
<path d="M155.62 200.5C155.62 201.9 155.17 203.04 154.27 203.93C153.37 204.82 152.22 205.26 150.82 205.26H132.06C130.66 205.26 129.52 204.82 128.63 203.93C127.74 203.05 127.3 201.9 127.3 200.5V142.99C127.3 141.59 127.74 140.45 128.63 139.56C129.51 138.68 130.66 138.23 132.06 138.23H150.82C152.22 138.23 153.37 138.67 154.27 139.56C155.17 140.45 155.62 141.59 155.62 142.99V200.5ZM149.67 199.99V143.51H133.27V199.99H149.67Z" fill="white"/>
<path d="M188.451 200.5C188.451 201.9 188.011 203.04 187.141 203.93C186.271 204.82 185.131 205.26 183.741 205.26H166.871C165.471 205.26 164.321 204.82 163.421 203.93C162.521 203.05 162.071 201.9 162.071 200.5V183.5H168.021V199.99H182.491V184.02L163.991 161.67C162.711 160.13 162.061 158.43 162.061 156.57V143C162.061 141.6 162.511 140.46 163.411 139.57C164.311 138.69 165.461 138.24 166.861 138.24H183.731C185.131 138.24 186.261 138.68 187.131 139.57C188.001 140.46 188.441 141.6 188.441 143V158.59H182.491V143.52H168.021V157.65L186.601 180C187.831 181.48 188.441 183.15 188.441 185.01V200.51L188.451 200.5Z" fill="white"/>
<path d="M58.93 252.08H56.38C56.29 251.67 56.22 250.68 56.2 250.15C55.55 251.84 54.16 252.42 52.6 252.42C49.13 252.42 48 249.89 48 245.88V234.2C48 230.24 49.56 227.53 53.5 227.53C58.22 227.53 58.85 230.95 58.85 233.75V234.46H55.61V233.62C55.61 232.17 55.42 230.49 53.49 230.49C51.99 230.49 51.3 231.48 51.3 233.76V246.18C51.3 248.31 51.89 249.53 53.41 249.53C55.28 249.53 55.67 247.88 55.67 245.14V241.47H53.31V238.66H58.92V252.06L58.93 252.08Z" fill="white"/>
<path d="M72.1904 241.06V252.08H68.9404V227.88H73.7104C77.3704 227.88 79.3804 229.39 79.3804 233.6V234.6C79.3804 238.14 78.0104 239.25 76.9204 239.67C78.3804 240.29 79.1504 241.37 79.1504 244.63C79.1504 246.68 79.1104 250.59 79.3804 252.08H76.2404C75.9304 250.6 75.9904 246.59 75.9904 244.85C75.9904 241.82 75.5804 241.05 73.3204 241.05H72.1904V241.06ZM72.1904 238.35H73.3504C75.4604 238.35 76.1404 237.36 76.1404 234.75V233.82C76.1404 231.81 75.6604 230.59 73.4204 230.59H72.2004V238.36L72.1904 238.35Z" fill="white"/>
<path d="M99.5396 234.1V245.78C99.5396 250.25 97.6596 252.42 93.7696 252.42C89.8796 252.42 88.3096 250.11 88.3096 245.83V234.09C88.3096 229.68 90.4496 227.54 93.9796 227.54C97.5096 227.54 99.5396 229.8 99.5396 234.1ZM91.6196 233.84V246.17C91.6196 248.48 92.4596 249.48 93.9196 249.48C95.4796 249.48 96.2296 248.53 96.2296 246.09V233.82C96.2296 231.63 95.5196 230.49 93.9096 230.49C92.3996 230.49 91.6196 231.54 91.6196 233.83V233.84Z" fill="white"/>
<path d="M112.23 227.88V246.46C112.23 248.33 112.86 249.48 114.46 249.48C116.06 249.48 116.64 248.29 116.64 246.47V227.88H119.9V246.38C119.9 250.17 118.19 252.42 114.4 252.42C110.61 252.42 108.99 250.42 108.99 246.42V227.88H112.23Z" fill="white"/>
<path d="M129.77 227.88H134.75C138.49 227.88 140.34 229.75 140.34 233.87V235.32C140.34 239.16 139.06 241.83 134.55 241.83H133.01V252.08H129.77V227.88ZM133.02 239.15H134.22C136.72 239.15 137.12 237.65 137.12 235.23V234C137.12 232.16 136.75 230.6 134.51 230.6H133.02V239.16V239.15Z" fill="white"/>
</svg>
