<svg width="44" height="44" viewBox="0 0 44 44" fill="none" xmlns="http://www.w3.org/2000/svg">
<g clip-path="url(#clip0_529_107)">
<path d="M42.7956 -1.875H1.20445C-0.220142 -1.875 -1.375 -0.720142 -1.375 0.704447V42.2956C-1.375 43.7201 -0.220142 44.875 1.20445 44.875H42.7956C44.2201 44.875 45.375 43.7201 45.375 42.2956V0.704447C45.375 -0.720142 44.2201 -1.875 42.7956 -1.875Z" fill="#3D5A98" style="fill:#3D5A98;fill:color(display-p3 0.2392 0.3529 0.5961);fill-opacity:1;"/>
<path d="M24.8397 40.0043V23.2656H30.457L31.2971 16.7425H24.8397V12.5788C24.8397 10.6906 25.3657 9.40131 28.0721 9.40131H31.5272V3.55756C29.8541 3.38351 28.1727 3.3006 26.4906 3.3092C21.5161 3.3092 18.0902 6.34065 18.0902 11.9324V16.7425H12.4729V23.2656H18.0902V40.0043H24.8397Z" fill="white" style="fill:white;fill-opacity:1;"/>
</g>
<defs>
<clipPath id="clip0_529_107">
<rect width="44" height="44" fill="white" style="fill:white;fill-opacity:1;"/>
</clipPath>
</defs>
</svg>
