<svg width="45" height="45" viewBox="0 0 45 45" fill="none" xmlns="http://www.w3.org/2000/svg">
<path d="M41.0163 1.94434H4.82281C3.58311 1.94434 2.57812 2.94932 2.57812 4.18902V40.3825C2.57812 41.6222 3.58311 42.6271 4.82281 42.6271H41.0163C42.256 42.6271 43.2609 41.6222 43.2609 40.3825V4.18902C43.2609 2.94932 42.256 1.94434 41.0163 1.94434Z" fill="#3D5A98" style="fill:#3D5A98;fill:color(display-p3 0.2392 0.3529 0.5961);fill-opacity:1;"/>
<path d="M25.5925 42.627V26.8729H30.8794L31.67 20.7335H25.5925V16.8148C25.5925 15.0376 26.0875 13.8242 28.6347 13.8242H31.8866V8.32416C30.3119 8.16035 28.7294 8.08232 27.1462 8.09041C22.4644 8.09041 19.24 10.9435 19.24 16.2064V20.7335H13.9531V26.8729H19.24V42.627H25.5925Z" fill="white" style="fill:white;fill-opacity:1;"/>
</svg>
