<svg width="45" height="45" viewBox="0 0 45 45" fill="none" xmlns="http://www.w3.org/2000/svg">
<g clip-path="url(#clip0_362_292)">
<rect x="0.920166" y="0.729492" width="44" height="44" rx="7" fill="#FDFDFD" style="fill:#FDFDFD;fill:color(display-p3 0.9938 0.9938 0.9938);fill-opacity:1;"/>
<g clip-path="url(#clip1_362_292)">
<path d="M43.7157 -1.14551H2.12461C0.700023 -1.14551 -0.454834 0.00934958 -0.454834 1.43394V43.025C-0.454834 44.4496 0.700023 45.6045 2.12461 45.6045H43.7157C45.1403 45.6045 46.2952 44.4496 46.2952 43.025V1.43394C46.2952 0.00934958 45.1403 -1.14551 43.7157 -1.14551Z" fill="#3D5A98" style="fill:#3D5A98;fill:color(display-p3 0.2392 0.3529 0.5961);fill-opacity:1;"/>
<path d="M25.7599 40.7336V23.9949H31.3772L32.2172 17.4718H25.7599V13.3081C25.7599 11.4198 26.2858 10.1306 28.9922 10.1306H32.4473V4.28681C30.7742 4.11276 29.0929 4.02985 27.4108 4.03845C22.4363 4.03845 19.0104 7.06989 19.0104 12.6616V17.4718H13.3931V23.9949H19.0104V40.7336H25.7599Z" fill="white" style="fill:white;fill-opacity:1;"/>
</g>
</g>
<defs>
<clipPath id="clip0_362_292">
<rect x="0.920166" y="0.729492" width="44" height="44" rx="7" fill="white" style="fill:white;fill-opacity:1;"/>
</clipPath>
<clipPath id="clip1_362_292">
<rect width="44" height="44" fill="white" style="fill:white;fill-opacity:1;" transform="translate(0.920166 0.729492)"/>
</clipPath>
</defs>
</svg>
