<svg width="65" height="65" viewBox="0 0 65 65" fill="none" xmlns="http://www.w3.org/2000/svg">
<rect x="1.43359" y="1.09473" width="62" height="62" fill="#FDFDFD" style="fill:#FDFDFD;fill:color(display-p3 0.9938 0.9938 0.9938);fill-opacity:1;"/>
<rect x="1.43359" y="1.09473" width="62" height="62" stroke="#0D0D0D" style="stroke:#0D0D0D;stroke:color(display-p3 0.0517 0.0517 0.0517);stroke-opacity:1;" stroke-width="2"/>
<path d="M47.9342 11.928C50.5114 11.9282 52.6002 14.0177 52.6002 16.595C52.6 19.172 50.5113 21.2608 47.9342 21.261C45.357 21.261 43.2674 19.1722 43.2672 16.595C43.2672 14.0176 45.3569 11.928 47.9342 11.928Z" fill="#0D0D0D" stroke="#0D0D0D" style="fill:#0D0D0D;fill:color(display-p3 0.0517 0.0517 0.0517);fill-opacity:1;stroke:#0D0D0D;stroke:color(display-p3 0.0517 0.0517 0.0517);stroke-opacity:1;"/>
<path d="M32.4337 44.1499C39.0918 44.1499 44.4893 38.7525 44.4893 32.0944C44.4893 25.4363 39.0918 20.0388 32.4337 20.0388C25.7756 20.0388 20.3782 25.4363 20.3782 32.0944C20.3782 38.7525 25.7756 44.1499 32.4337 44.1499Z" stroke="#0D0D0D" style="stroke:#0D0D0D;stroke:color(display-p3 0.0517 0.0517 0.0517);stroke-opacity:1;" stroke-width="2"/>
</svg>
