<svg width="45" height="45" viewBox="0 0 45 45" fill="none" xmlns="http://www.w3.org/2000/svg">
<g clip-path="url(#clip0_272_812)">
<path d="M34.6077 0.729492H11.2327C5.53723 0.729492 0.920166 5.34656 0.920166 11.042V34.417C0.920166 40.1124 5.53723 44.7295 11.2327 44.7295H34.6077C40.3031 44.7295 44.9202 40.1124 44.9202 34.417V11.042C44.9202 5.34656 40.3031 0.729492 34.6077 0.729492Z" fill="url(#paint0_radial_272_812)" style=""/>
<path d="M34.6077 0.729492H11.2327C5.53723 0.729492 0.920166 5.34656 0.920166 11.042V34.417C0.920166 40.1124 5.53723 44.7295 11.2327 44.7295H34.6077C40.3031 44.7295 44.9202 40.1124 44.9202 34.417V11.042C44.9202 5.34656 40.3031 0.729492 34.6077 0.729492Z" fill="url(#paint1_radial_272_812)" style=""/>
<path d="M22.9217 5.54199C18.2539 5.54199 17.668 5.56245 15.8348 5.6458C14.005 5.72968 12.756 6.01929 11.6632 6.44434C10.5326 6.8833 9.57373 7.4706 8.61845 8.42623C7.66231 9.38168 7.07501 10.3406 6.63467 11.4706C6.20842 12.5638 5.91846 13.8133 5.83613 15.6422C5.75415 17.4756 5.73267 18.0617 5.73267 22.7297C5.73267 27.3976 5.75329 27.9816 5.83648 29.8149C5.9207 31.6446 6.21031 32.8937 6.63501 33.9864C7.07432 35.117 7.66162 36.0759 8.61724 37.0312C9.57235 37.9874 10.5312 38.576 11.661 39.015C12.7546 39.44 14.0038 39.7296 15.8332 39.8135C17.6666 39.8969 18.252 39.9173 22.9197 39.9173C27.5879 39.9173 28.172 39.8969 30.0052 39.8135C31.835 39.7296 33.0854 39.44 34.179 39.015C35.3091 38.576 36.2666 37.9874 37.2215 37.0312C38.1777 36.0759 38.7648 35.117 39.2053 33.987C39.6278 32.8937 39.9179 31.6443 40.0039 29.8152C40.0862 27.982 40.1077 27.3976 40.1077 22.7297C40.1077 18.0617 40.0862 17.476 40.0039 15.6426C39.9179 13.8128 39.6278 12.5639 39.2053 11.4712C38.7648 10.3406 38.1777 9.38168 37.2215 8.42623C36.2656 7.47026 35.3094 6.88296 34.178 6.44451C33.0823 6.01929 31.8326 5.72951 30.0028 5.6458C28.1694 5.56245 27.5857 5.54199 22.9164 5.54199H22.9217ZM21.3798 8.63935C21.8375 8.63866 22.3482 8.63935 22.9217 8.63935C27.5109 8.63935 28.0548 8.65585 29.867 8.73818C31.5428 8.81484 32.4524 9.09482 33.0582 9.33012C33.8604 9.64155 34.4322 10.014 35.0334 10.6157C35.635 11.2173 36.0072 11.7902 36.3195 12.5923C36.5548 13.1973 36.8352 14.1069 36.9115 15.7826C36.9938 17.5946 37.0117 18.1387 37.0117 22.7257C37.0117 27.3127 36.9938 27.857 36.9115 29.6688C36.8348 31.3446 36.5548 32.2541 36.3195 32.8593C36.0081 33.6614 35.635 34.2326 35.0334 34.8338C34.4318 35.4354 33.8607 35.8076 33.0582 36.1192C32.453 36.3556 31.5428 36.6349 29.867 36.7115C28.0551 36.7939 27.5109 36.8117 22.9217 36.8117C18.3323 36.8117 17.7883 36.7939 15.9766 36.7115C14.3008 36.6342 13.3912 36.3542 12.7849 36.1189C11.9829 35.8073 11.4099 35.435 10.8083 34.8334C10.2067 34.2319 9.83446 33.6604 9.52217 32.8579C9.28687 32.2527 9.00654 31.3432 8.93023 29.6674C8.8479 27.8555 8.8314 27.3113 8.8314 22.7214C8.8314 18.1315 8.8479 17.5903 8.93023 15.7784C9.00688 14.1026 9.28687 13.193 9.52217 12.5871C9.83378 11.785 10.2067 11.2121 10.8085 10.6106C11.4102 10.009 11.9829 9.63657 12.785 9.32445C13.3909 9.08812 14.3008 8.80882 15.9766 8.73182C17.5621 8.66015 18.1766 8.63866 21.3798 8.63505V8.63935ZM32.0964 11.4932C30.9577 11.4932 30.0339 12.4161 30.0339 13.555C30.0339 14.6936 30.9577 15.6175 32.0964 15.6175C33.2351 15.6175 34.1589 14.6936 34.1589 13.555C34.1589 12.4163 33.2351 11.4925 32.0964 11.4925V11.4932ZM22.9217 13.903C18.0473 13.903 14.0952 17.8551 14.0952 22.7297C14.0952 27.6042 18.0473 31.5544 22.9217 31.5544C27.7963 31.5544 31.747 27.6042 31.747 22.7297C31.747 17.8553 27.7959 13.903 22.9214 13.903H22.9217ZM22.9217 17.0004C26.0858 17.0004 28.651 19.5653 28.651 22.7297C28.651 25.8937 26.0858 28.4589 22.9217 28.4589C19.7577 28.4589 17.1926 25.8937 17.1926 22.7297C17.1926 19.5653 19.7575 17.0004 22.9217 17.0004Z" fill="white" style="fill:white;fill-opacity:1;"/>
</g>
<defs>
<radialGradient id="paint0_radial_272_812" cx="0" cy="0" r="1" gradientUnits="userSpaceOnUse" gradientTransform="translate(12.6077 48.1183) rotate(-90) scale(43.6073 40.5582)">
<stop stop-color="#FFDD55" style="stop-color:#FFDD55;stop-color:color(display-p3 1.0000 0.8667 0.3333);stop-opacity:1;"/>
<stop offset="0.1" stop-color="#FFDD55" style="stop-color:#FFDD55;stop-color:color(display-p3 1.0000 0.8667 0.3333);stop-opacity:1;"/>
<stop offset="0.5" stop-color="#FF543E" style="stop-color:#FF543E;stop-color:color(display-p3 1.0000 0.3294 0.2431);stop-opacity:1;"/>
<stop offset="1" stop-color="#C837AB" style="stop-color:#C837AB;stop-color:color(display-p3 0.7843 0.2157 0.6706);stop-opacity:1;"/>
</radialGradient>
<radialGradient id="paint1_radial_272_812" cx="0" cy="0" r="1" gradientUnits="userSpaceOnUse" gradientTransform="translate(-6.45001 3.89904) rotate(78.681) scale(19.4927 80.3495)">
<stop stop-color="#3771C8" style="stop-color:#3771C8;stop-color:color(display-p3 0.2157 0.4431 0.7843);stop-opacity:1;"/>
<stop offset="0.128" stop-color="#3771C8" style="stop-color:#3771C8;stop-color:color(display-p3 0.2157 0.4431 0.7843);stop-opacity:1;"/>
<stop offset="1" stop-color="#6600FF" stop-opacity="0" style="stop-color:none;stop-opacity:0;"/>
</radialGradient>
<clipPath id="clip0_272_812">
<rect width="44" height="44" fill="white" style="fill:white;fill-opacity:1;" transform="translate(0.920166 0.729492)"/>
</clipPath>
</defs>
</svg>
