<svg width="14" height="18" viewBox="0 0 14 18" fill="none" xmlns="http://www.w3.org/2000/svg">
<path d="M9.08341 6.49984C9.08341 7.05237 8.86392 7.58228 8.47322 7.97298C8.08252 8.36368 7.55262 8.58317 7.00008 8.58317C6.44755 8.58317 5.91764 8.36368 5.52694 7.97298C5.13624 7.58228 4.91675 7.05237 4.91675 6.49984C4.91675 5.9473 5.13624 5.4174 5.52694 5.0267C5.91764 4.636 6.44755 4.4165 7.00008 4.4165C7.55262 4.4165 8.08252 4.636 8.47322 5.0267C8.86392 5.4174 9.08341 5.9473 9.08341 6.49984Z" stroke="#FDFDFD" style="stroke:#FDFDFD;stroke:color(display-p3 0.9938 0.9938 0.9938);stroke-opacity:1;" stroke-linecap="round" stroke-linejoin="round"/>
<path d="M12 15.6665C12 16.5873 9.76166 17.3332 6.99999 17.3332C4.23833 17.3332 1.99999 16.5873 1.99999 15.6665M8.04749 13.5782C7.76602 13.849 7.39059 14.0003 6.99999 14.0003C6.60939 14.0003 6.23397 13.849 5.95249 13.5782C3.37833 11.084 -0.0708402 8.29817 1.61083 4.25317C2.52166 2.06567 4.70499 0.666504 6.99999 0.666504C9.29499 0.666504 11.4792 2.0665 12.3892 4.25317C14.0692 8.29234 10.6283 11.0923 8.04749 13.5782Z" stroke="#FDFDFD" style="stroke:#FDFDFD;stroke:color(display-p3 0.9938 0.9938 0.9938);stroke-opacity:1;" stroke-linecap="round" stroke-linejoin="round"/>
</svg>
