<?xml version="1.0" encoding="UTF-8"?>
<svg id="Layer_1" xmlns="http://www.w3.org/2000/svg" version="1.1" viewBox="0 0 359.26 359.26">
  <!-- Generator: Adobe Illustrator 29.5.0, SVG Export Plug-In . SVG Version: 2.1.0 Build 137)  -->
  <g>
    <g>
      <path d="M218.46,188.77l-38.7-37.1c-.92-.89-1.22-2.24-.74-3.43s1.63-1.96,2.91-1.96h34.84v-37.79l-38.54-25.23-38.55,25.23v78.03h-6.26v-79.72c0-1.06.53-2.04,1.42-2.62l41.68-27.28c1.04-.68,2.39-.68,3.43,0l41.68,27.28c.88.58,1.42,1.56,1.42,2.62v42.62c0,1.73-1.4,3.13-3.13,3.13h-30.17l33.08,31.71-4.34,4.52Z"/>
      <path d="M157.99,186.51h-6.26v-70.29c0-1.06.53-2.04,1.42-2.62l39.72-26,3.43,5.24-38.3,25.07v68.6Z"/>
    </g>
    <g>
      <path d="M115.3,275.34h-6.07l-12.09-34.83.79-1.16h10.31v-23.94h-14.84v59.93h-5.78v-65.04h21.78c1.36,0,2.47.43,3.32,1.29.86.86,1.29,1.97,1.29,3.32v24.69c0,3.13-2.11,4.7-6.32,4.7-.42,0-1.03-.02-1.83-.06-.8-.04-1.39-.06-1.75-.06,3.74,10.36,7.47,20.75,11.18,31.17Z"/>
      <path d="M142.28,275.34h-21.36v-65.04h21.11v5.11h-15.33v24.27h13.96v5.19h-13.96v25.35h15.58v5.11Z"/>
      <path d="M174.88,275.34h-3.99l-17.37-47.83v47.83h-5.44v-65.04h4.32l17.04,47v-47h5.44v65.04Z"/>
      <path d="M205.6,215.42h-10.06v59.93h-5.78v-59.93h-10.14v-5.11h25.97v5.11Z"/>
      <path d="M237.85,270.73c0,1.36-.44,2.47-1.31,3.32-.87.86-1.99,1.29-3.35,1.29h-18.2c-1.36,0-2.47-.43-3.32-1.29-.86-.86-1.29-1.97-1.29-3.32v-55.81c0-1.36.43-2.47,1.29-3.32.86-.86,1.97-1.29,3.32-1.29h18.2c1.36,0,2.47.43,3.35,1.29.87.86,1.31,1.97,1.31,3.32v55.81ZM232.07,270.23v-54.82h-15.92v54.82h15.92Z"/>
      <path d="M269.71,270.73c0,1.36-.42,2.47-1.27,3.32-.85.86-1.95,1.29-3.3,1.29h-16.37c-1.36,0-2.47-.43-3.35-1.29-.87-.86-1.31-1.97-1.31-3.32v-16.5h5.78v16h14.05v-15.5l-17.95-21.69c-1.25-1.5-1.87-3.14-1.87-4.95v-13.17c0-1.36.44-2.47,1.31-3.32.87-.86,1.99-1.29,3.35-1.29h16.37c1.36,0,2.46.43,3.3,1.29.84.86,1.27,1.97,1.27,3.32v15.13h-5.78v-14.63h-14.05v13.71l18.04,21.69c1.19,1.44,1.79,3.06,1.79,4.86v15.04Z"/>
    </g>
    <g>
      <path d="M144.02,320.79h-2.47c-.08-.4-.15-1.36-.18-1.88-.63,1.64-1.98,2.21-3.5,2.21-3.37,0-4.46-2.46-4.46-6.34v-11.33c0-3.84,1.52-6.47,5.34-6.47,4.58,0,5.19,3.32,5.19,6.03v.69h-3.15v-.82c0-1.41-.19-3.04-2.06-3.04-1.45,0-2.12.96-2.12,3.17v12.05c0,2.06.57,3.25,2.05,3.25,1.82,0,2.19-1.6,2.19-4.26v-3.56h-2.29v-2.72h5.45v13.01Z"/>
      <path d="M156.88,310.09v10.7h-3.15v-23.48h4.63c3.55,0,5.51,1.47,5.51,5.55v.97c0,3.43-1.33,4.51-2.39,4.92,1.42.61,2.17,1.65,2.17,4.82,0,1.99-.04,5.78.22,7.23h-3.05c-.31-1.44-.25-5.33-.25-7.01,0-2.94-.39-3.68-2.59-3.68h-1.1ZM156.88,307.47h1.13c2.05,0,2.7-.96,2.7-3.5v-.91c0-1.95-.46-3.13-2.64-3.13h-1.19v7.54Z"/>
      <path d="M183.42,303.34v11.33c0,4.34-1.82,6.45-5.6,6.45s-5.3-2.24-5.3-6.4v-11.4c0-4.28,2.08-6.35,5.5-6.35s5.39,2.19,5.39,6.37ZM175.74,303.09v11.97c0,2.24.81,3.21,2.23,3.21,1.51,0,2.25-.92,2.25-3.29v-11.91c0-2.13-.69-3.23-2.26-3.23-1.47,0-2.22,1.02-2.22,3.24Z"/>
      <path d="M195.74,297.3v18.03c0,1.81.61,2.93,2.17,2.93s2.11-1.16,2.11-2.92v-18.04h3.16v17.96c0,3.67-1.66,5.86-5.34,5.86s-5.25-1.94-5.25-5.83v-17.99h3.15Z"/>
      <path d="M212.76,297.3h4.83c3.63,0,5.43,1.81,5.43,5.81v1.4c0,3.73-1.25,6.32-5.62,6.32h-1.49v9.95h-3.15v-23.48ZM215.91,308.24h1.16c2.43,0,2.81-1.45,2.81-3.81v-1.2c0-1.79-.35-3.3-2.54-3.3h-1.44v8.31Z"/>
    </g>
  </g>
  <path d="M359.26,359.26H0V0h359.26v359.26ZM6.53,352.74h346.21V6.53H6.53v346.21Z"/>
</svg>