<svg width="20" height="20" viewBox="0 0 20 20" fill="none" xmlns="http://www.w3.org/2000/svg">
<g clip-path="url(#clip0_362_317)">
<path d="M18.75 5.41667C18.75 3.11542 16.8846 1.25 14.5833 1.25H14.3462C14.0964 1.25004 13.8524 1.32493 13.6456 1.465C13.4387 1.60507 13.2786 1.80389 13.1858 2.03583L12.1583 4.60417C12.0372 4.90699 12.0075 5.23872 12.0731 5.55823C12.1386 5.87775 12.2965 6.171 12.5271 6.40167L13.8092 7.68375C14.0146 7.88917 14.1008 8.18792 14.0167 8.46625C13.617 9.77518 12.9018 10.9659 11.934 11.9336C10.9663 12.9014 9.7756 13.6165 8.46667 14.0162C8.18833 14.1008 7.88958 14.0142 7.68417 13.8087L6.40208 12.5267C6.17142 12.2961 5.87816 12.1382 5.55865 12.0727C5.23913 12.0071 4.90741 12.0368 4.60458 12.1579L2.03583 13.1854C1.80389 13.2782 1.60507 13.4383 1.465 13.6451C1.32493 13.852 1.25004 14.096 1.25 14.3458V14.5833C1.25 16.8846 3.11542 18.75 5.41667 18.75H5.625C12.7542 18.75 18.5558 13.0658 18.7454 5.9825C18.7454 5.98028 18.7461 5.97847 18.7475 5.97708C18.749 5.97565 18.7499 5.97372 18.75 5.97167V5.41667Z" stroke="#FDFDFD" style="stroke:#FDFDFD;stroke:color(display-p3 0.9938 0.9938 0.9938);stroke-opacity:1;" stroke-linejoin="round"/>
</g>
<defs>
<clipPath id="clip0_362_317">
<rect width="20" height="20" fill="white" style="fill:white;fill-opacity:1;"/>
</clipPath>
</defs>
</svg>
